solid ASCII
  facet normal 0.000000e+00 1.000000e+00 -0.000000e+00
    outer loop
      vertex   5.000000e+01 5.000000e+01 0.000000e+00
      vertex   3.333333e+01 5.000000e+01 0.000000e+00
      vertex   5.000000e+01 5.000000e+01 1.666667e+01
    endloop
  endfacet
  facet normal 0.000000e+00 1.000000e+00 0.000000e+00
    outer loop
      vertex   5.000000e+01 5.000000e+01 1.666667e+01
      vertex   3.333333e+01 5.000000e+01 0.000000e+00
      vertex   3.333333e+01 5.000000e+01 1.666667e+01
    endloop
  endfacet
  facet normal 0.000000e+00 1.000000e+00 -0.000000e+00
    outer loop
      vertex   5.000000e+01 5.000000e+01 1.666667e+01
      vertex   3.333333e+01 5.000000e+01 1.666667e+01
      vertex   5.000000e+01 5.000000e+01 3.333333e+01
    endloop
  endfacet
  facet normal 0.000000e+00 1.000000e+00 0.000000e+00
    outer loop
      vertex   5.000000e+01 5.000000e+01 3.333333e+01
      vertex   3.333333e+01 5.000000e+01 1.666667e+01
      vertex   3.333333e+01 5.000000e+01 3.333333e+01
    endloop
  endfacet
  facet normal 0.000000e+00 1.000000e+00 -0.000000e+00
    outer loop
      vertex   5.000000e+01 5.000000e+01 3.333333e+01
      vertex   3.333333e+01 5.000000e+01 3.333333e+01
      vertex   5.000000e+01 5.000000e+01 5.000000e+01
    endloop
  endfacet
  facet normal 0.000000e+00 1.000000e+00 0.000000e+00
    outer loop
      vertex   5.000000e+01 5.000000e+01 5.000000e+01
      vertex   3.333333e+01 5.000000e+01 3.333333e+01
      vertex   3.333333e+01 5.000000e+01 5.000000e+01
    endloop
  endfacet
  facet normal 0.000000e+00 1.000000e+00 0.000000e+00
    outer loop
      vertex   3.333333e+01 5.000000e+01 5.000000e+01
      vertex   3.333333e+01 5.000000e+01 3.333333e+01
      vertex   1.666667e+01 5.000000e+01 3.333333e+01
    endloop
  endfacet
  facet normal 0.000000e+00 1.000000e+00 0.000000e+00
    outer loop
      vertex   3.333333e+01 5.000000e+01 5.000000e+01
      vertex   1.666667e+01 5.000000e+01 3.333333e+01
      vertex   1.666667e+01 5.000000e+01 5.000000e+01
    endloop
  endfacet
  facet normal 0.000000e+00 1.000000e+00 0.000000e+00
    outer loop
      vertex   1.666667e+01 5.000000e+01 5.000000e+01
      vertex   1.666667e+01 5.000000e+01 3.333333e+01
      vertex   -6.162976e-31 5.000000e+01 3.333333e+01
    endloop
  endfacet
  facet normal 0.000000e+00 1.000000e+00 0.000000e+00
    outer loop
      vertex   1.666667e+01 5.000000e+01 5.000000e+01
      vertex   -6.162976e-31 5.000000e+01 3.333333e+01
      vertex   -6.162976e-31 5.000000e+01 5.000000e+01
    endloop
  endfacet
  facet normal 0.000000e+00 1.000000e+00 -0.000000e+00
    outer loop
      vertex   3.333333e+01 5.000000e+01 0.000000e+00
      vertex   1.666667e+01 5.000000e+01 0.000000e+00
      vertex   3.333333e+01 5.000000e+01 1.666667e+01
    endloop
  endfacet
  facet normal 0.000000e+00 1.000000e+00 0.000000e+00
    outer loop
      vertex   3.333333e+01 5.000000e+01 1.666667e+01
      vertex   1.666667e+01 5.000000e+01 0.000000e+00
      vertex   1.666667e+01 5.000000e+01 1.666667e+01
    endloop
  endfacet
  facet normal 0.000000e+00 1.000000e+00 -0.000000e+00
    outer loop
      vertex   3.333333e+01 5.000000e+01 1.666667e+01
      vertex   1.666667e+01 5.000000e+01 1.666667e+01
      vertex   3.333333e+01 5.000000e+01 3.333333e+01
    endloop
  endfacet
  facet normal 0.000000e+00 1.000000e+00 0.000000e+00
    outer loop
      vertex   3.333333e+01 5.000000e+01 3.333333e+01
      vertex   1.666667e+01 5.000000e+01 1.666667e+01
      vertex   1.666667e+01 5.000000e+01 3.333333e+01
    endloop
  endfacet
  facet normal 0.000000e+00 1.000000e+00 -0.000000e+00
    outer loop
      vertex   1.666667e+01 5.000000e+01 0.000000e+00
      vertex   -6.162976e-31 5.000000e+01 0.000000e+00
      vertex   1.666667e+01 5.000000e+01 1.666667e+01
    endloop
  endfacet
  facet normal 0.000000e+00 1.000000e+00 0.000000e+00
    outer loop
      vertex   1.666667e+01 5.000000e+01 1.666667e+01
      vertex   -6.162976e-31 5.000000e+01 0.000000e+00
      vertex   -6.162976e-31 5.000000e+01 1.666667e+01
    endloop
  endfacet
  facet normal 0.000000e+00 1.000000e+00 -0.000000e+00
    outer loop
      vertex   1.666667e+01 5.000000e+01 1.666667e+01
      vertex   -6.162976e-31 5.000000e+01 1.666667e+01
      vertex   1.666667e+01 5.000000e+01 3.333333e+01
    endloop
  endfacet
  facet normal 0.000000e+00 1.000000e+00 0.000000e+00
    outer loop
      vertex   1.666667e+01 5.000000e+01 3.333333e+01
      vertex   -6.162976e-31 5.000000e+01 1.666667e+01
      vertex   -6.162976e-31 5.000000e+01 3.333333e+01
    endloop
  endfacet
  facet normal 1.000000e+00 0.000000e+00 0.000000e+00
    outer loop
      vertex   5.000000e+01 0.000000e+00 0.000000e+00
      vertex   5.000000e+01 1.666667e+01 0.000000e+00
      vertex   5.000000e+01 0.000000e+00 1.666667e+01
    endloop
  endfacet
  facet normal 1.000000e+00 -0.000000e+00 0.000000e+00
    outer loop
      vertex   5.000000e+01 0.000000e+00 1.666667e+01
      vertex   5.000000e+01 1.666667e+01 0.000000e+00
      vertex   5.000000e+01 1.666667e+01 1.666667e+01
    endloop
  endfacet
  facet normal 1.000000e+00 0.000000e+00 0.000000e+00
    outer loop
      vertex   5.000000e+01 0.000000e+00 1.666667e+01
      vertex   5.000000e+01 1.666667e+01 1.666667e+01
      vertex   5.000000e+01 0.000000e+00 3.333333e+01
    endloop
  endfacet
  facet normal 1.000000e+00 -0.000000e+00 0.000000e+00
    outer loop
      vertex   5.000000e+01 0.000000e+00 3.333333e+01
      vertex   5.000000e+01 1.666667e+01 1.666667e+01
      vertex   5.000000e+01 1.666667e+01 3.333333e+01
    endloop
  endfacet
  facet normal 1.000000e+00 0.000000e+00 0.000000e+00
    outer loop
      vertex   5.000000e+01 0.000000e+00 3.333333e+01
      vertex   5.000000e+01 1.666667e+01 3.333333e+01
      vertex   5.000000e+01 0.000000e+00 5.000000e+01
    endloop
  endfacet
  facet normal 1.000000e+00 -0.000000e+00 0.000000e+00
    outer loop
      vertex   5.000000e+01 0.000000e+00 5.000000e+01
      vertex   5.000000e+01 1.666667e+01 3.333333e+01
      vertex   5.000000e+01 1.666667e+01 5.000000e+01
    endloop
  endfacet
  facet normal 1.000000e+00 0.000000e+00 0.000000e+00
    outer loop
      vertex   5.000000e+01 1.666667e+01 5.000000e+01
      vertex   5.000000e+01 1.666667e+01 3.333333e+01
      vertex   5.000000e+01 3.333333e+01 3.333333e+01
    endloop
  endfacet
  facet normal 1.000000e+00 -0.000000e+00 0.000000e+00
    outer loop
      vertex   5.000000e+01 1.666667e+01 5.000000e+01
      vertex   5.000000e+01 3.333333e+01 3.333333e+01
      vertex   5.000000e+01 3.333333e+01 5.000000e+01
    endloop
  endfacet
  facet normal 1.000000e+00 0.000000e+00 0.000000e+00
    outer loop
      vertex   5.000000e+01 3.333333e+01 5.000000e+01
      vertex   5.000000e+01 3.333333e+01 3.333333e+01
      vertex   5.000000e+01 5.000000e+01 3.333333e+01
    endloop
  endfacet
  facet normal 1.000000e+00 -0.000000e+00 0.000000e+00
    outer loop
      vertex   5.000000e+01 3.333333e+01 5.000000e+01
      vertex   5.000000e+01 5.000000e+01 3.333333e+01
      vertex   5.000000e+01 5.000000e+01 5.000000e+01
    endloop
  endfacet
  facet normal 1.000000e+00 0.000000e+00 0.000000e+00
    outer loop
      vertex   5.000000e+01 1.666667e+01 0.000000e+00
      vertex   5.000000e+01 3.333333e+01 0.000000e+00
      vertex   5.000000e+01 1.666667e+01 1.666667e+01
    endloop
  endfacet
  facet normal 1.000000e+00 -0.000000e+00 0.000000e+00
    outer loop
      vertex   5.000000e+01 1.666667e+01 1.666667e+01
      vertex   5.000000e+01 3.333333e+01 0.000000e+00
      vertex   5.000000e+01 3.333333e+01 1.666667e+01
    endloop
  endfacet
  facet normal 1.000000e+00 0.000000e+00 0.000000e+00
    outer loop
      vertex   5.000000e+01 1.666667e+01 1.666667e+01
      vertex   5.000000e+01 3.333333e+01 1.666667e+01
      vertex   5.000000e+01 1.666667e+01 3.333333e+01
    endloop
  endfacet
  facet normal 1.000000e+00 -0.000000e+00 0.000000e+00
    outer loop
      vertex   5.000000e+01 1.666667e+01 3.333333e+01
      vertex   5.000000e+01 3.333333e+01 1.666667e+01
      vertex   5.000000e+01 3.333333e+01 3.333333e+01
    endloop
  endfacet
  facet normal 1.000000e+00 0.000000e+00 0.000000e+00
    outer loop
      vertex   5.000000e+01 3.333333e+01 0.000000e+00
      vertex   5.000000e+01 5.000000e+01 0.000000e+00
      vertex   5.000000e+01 3.333333e+01 1.666667e+01
    endloop
  endfacet
  facet normal 1.000000e+00 -0.000000e+00 0.000000e+00
    outer loop
      vertex   5.000000e+01 3.333333e+01 1.666667e+01
      vertex   5.000000e+01 5.000000e+01 0.000000e+00
      vertex   5.000000e+01 5.000000e+01 1.666667e+01
    endloop
  endfacet
  facet normal 1.000000e+00 0.000000e+00 0.000000e+00
    outer loop
      vertex   5.000000e+01 3.333333e+01 1.666667e+01
      vertex   5.000000e+01 5.000000e+01 1.666667e+01
      vertex   5.000000e+01 3.333333e+01 3.333333e+01
    endloop
  endfacet
  facet normal 1.000000e+00 -0.000000e+00 0.000000e+00
    outer loop
      vertex   5.000000e+01 3.333333e+01 3.333333e+01
      vertex   5.000000e+01 5.000000e+01 1.666667e+01
      vertex   5.000000e+01 5.000000e+01 3.333333e+01
    endloop
  endfacet
  facet normal 0.000000e+00 -1.000000e+00 0.000000e+00
    outer loop
      vertex   0.000000e+00 0.000000e+00 0.000000e+00
      vertex   1.666667e+01 0.000000e+00 0.000000e+00
      vertex   0.000000e+00 0.000000e+00 1.666667e+01
    endloop
  endfacet
  facet normal 0.000000e+00 -1.000000e+00 0.000000e+00
    outer loop
      vertex   0.000000e+00 0.000000e+00 1.666667e+01
      vertex   1.666667e+01 0.000000e+00 0.000000e+00
      vertex   1.666667e+01 0.000000e+00 1.666667e+01
    endloop
  endfacet
  facet normal 0.000000e+00 -1.000000e+00 0.000000e+00
    outer loop
      vertex   0.000000e+00 0.000000e+00 1.666667e+01
      vertex   1.666667e+01 0.000000e+00 1.666667e+01
      vertex   0.000000e+00 0.000000e+00 3.333333e+01
    endloop
  endfacet
  facet normal 0.000000e+00 -1.000000e+00 0.000000e+00
    outer loop
      vertex   0.000000e+00 0.000000e+00 3.333333e+01
      vertex   1.666667e+01 0.000000e+00 1.666667e+01
      vertex   1.666667e+01 0.000000e+00 3.333333e+01
    endloop
  endfacet
  facet normal 0.000000e+00 -1.000000e+00 0.000000e+00
    outer loop
      vertex   0.000000e+00 0.000000e+00 3.333333e+01
      vertex   1.666667e+01 0.000000e+00 3.333333e+01
      vertex   0.000000e+00 0.000000e+00 5.000000e+01
    endloop
  endfacet
  facet normal 0.000000e+00 -1.000000e+00 0.000000e+00
    outer loop
      vertex   0.000000e+00 0.000000e+00 5.000000e+01
      vertex   1.666667e+01 0.000000e+00 3.333333e+01
      vertex   1.666667e+01 0.000000e+00 5.000000e+01
    endloop
  endfacet
  facet normal 0.000000e+00 -1.000000e+00 0.000000e+00
    outer loop
      vertex   1.666667e+01 0.000000e+00 5.000000e+01
      vertex   1.666667e+01 0.000000e+00 3.333333e+01
      vertex   3.333333e+01 0.000000e+00 3.333333e+01
    endloop
  endfacet
  facet normal 0.000000e+00 -1.000000e+00 0.000000e+00
    outer loop
      vertex   1.666667e+01 0.000000e+00 5.000000e+01
      vertex   3.333333e+01 0.000000e+00 3.333333e+01
      vertex   3.333333e+01 0.000000e+00 5.000000e+01
    endloop
  endfacet
  facet normal 0.000000e+00 -1.000000e+00 0.000000e+00
    outer loop
      vertex   3.333333e+01 0.000000e+00 5.000000e+01
      vertex   3.333333e+01 0.000000e+00 3.333333e+01
      vertex   5.000000e+01 0.000000e+00 3.333333e+01
    endloop
  endfacet
  facet normal 0.000000e+00 -1.000000e+00 0.000000e+00
    outer loop
      vertex   3.333333e+01 0.000000e+00 5.000000e+01
      vertex   5.000000e+01 0.000000e+00 3.333333e+01
      vertex   5.000000e+01 0.000000e+00 5.000000e+01
    endloop
  endfacet
  facet normal 0.000000e+00 -1.000000e+00 0.000000e+00
    outer loop
      vertex   1.666667e+01 0.000000e+00 0.000000e+00
      vertex   3.333333e+01 0.000000e+00 0.000000e+00
      vertex   1.666667e+01 0.000000e+00 1.666667e+01
    endloop
  endfacet
  facet normal 0.000000e+00 -1.000000e+00 0.000000e+00
    outer loop
      vertex   1.666667e+01 0.000000e+00 1.666667e+01
      vertex   3.333333e+01 0.000000e+00 0.000000e+00
      vertex   3.333333e+01 0.000000e+00 1.666667e+01
    endloop
  endfacet
  facet normal 0.000000e+00 -1.000000e+00 0.000000e+00
    outer loop
      vertex   1.666667e+01 0.000000e+00 1.666667e+01
      vertex   3.333333e+01 0.000000e+00 1.666667e+01
      vertex   1.666667e+01 0.000000e+00 3.333333e+01
    endloop
  endfacet
  facet normal 0.000000e+00 -1.000000e+00 0.000000e+00
    outer loop
      vertex   1.666667e+01 0.000000e+00 3.333333e+01
      vertex   3.333333e+01 0.000000e+00 1.666667e+01
      vertex   3.333333e+01 0.000000e+00 3.333333e+01
    endloop
  endfacet
  facet normal 0.000000e+00 -1.000000e+00 0.000000e+00
    outer loop
      vertex   3.333333e+01 0.000000e+00 0.000000e+00
      vertex   5.000000e+01 0.000000e+00 0.000000e+00
      vertex   3.333333e+01 0.000000e+00 1.666667e+01
    endloop
  endfacet
  facet normal 0.000000e+00 -1.000000e+00 0.000000e+00
    outer loop
      vertex   3.333333e+01 0.000000e+00 1.666667e+01
      vertex   5.000000e+01 0.000000e+00 0.000000e+00
      vertex   5.000000e+01 0.000000e+00 1.666667e+01
    endloop
  endfacet
  facet normal 0.000000e+00 -1.000000e+00 0.000000e+00
    outer loop
      vertex   3.333333e+01 0.000000e+00 1.666667e+01
      vertex   5.000000e+01 0.000000e+00 1.666667e+01
      vertex   3.333333e+01 0.000000e+00 3.333333e+01
    endloop
  endfacet
  facet normal 0.000000e+00 -1.000000e+00 0.000000e+00
    outer loop
      vertex   3.333333e+01 0.000000e+00 3.333333e+01
      vertex   5.000000e+01 0.000000e+00 1.666667e+01
      vertex   5.000000e+01 0.000000e+00 3.333333e+01
    endloop
  endfacet
  facet normal -1.000000e+00 -1.232595e-32 0.000000e+00
    outer loop
      vertex   -6.162976e-31 5.000000e+01 0.000000e+00
      vertex   -4.108651e-31 3.333333e+01 0.000000e+00
      vertex   -6.162976e-31 5.000000e+01 1.666667e+01
    endloop
  endfacet
  facet normal -1.000000e+00 -1.232595e-32 0.000000e+00
    outer loop
      vertex   -6.162976e-31 5.000000e+01 1.666667e+01
      vertex   -4.108651e-31 3.333333e+01 0.000000e+00
      vertex   -4.108651e-31 3.333333e+01 1.666667e+01
    endloop
  endfacet
  facet normal -1.000000e+00 -1.232595e-32 0.000000e+00
    outer loop
      vertex   -6.162976e-31 5.000000e+01 1.666667e+01
      vertex   -4.108651e-31 3.333333e+01 1.666667e+01
      vertex   -6.162976e-31 5.000000e+01 3.333333e+01
    endloop
  endfacet
  facet normal -1.000000e+00 -1.232595e-32 0.000000e+00
    outer loop
      vertex   -6.162976e-31 5.000000e+01 3.333333e+01
      vertex   -4.108651e-31 3.333333e+01 1.666667e+01
      vertex   -4.108651e-31 3.333333e+01 3.333333e+01
    endloop
  endfacet
  facet normal -1.000000e+00 -1.232595e-32 0.000000e+00
    outer loop
      vertex   -6.162976e-31 5.000000e+01 3.333333e+01
      vertex   -4.108651e-31 3.333333e+01 3.333333e+01
      vertex   -6.162976e-31 5.000000e+01 5.000000e+01
    endloop
  endfacet
  facet normal -1.000000e+00 -1.232595e-32 0.000000e+00
    outer loop
      vertex   -6.162976e-31 5.000000e+01 5.000000e+01
      vertex   -4.108651e-31 3.333333e+01 3.333333e+01
      vertex   -4.108651e-31 3.333333e+01 5.000000e+01
    endloop
  endfacet
  facet normal -1.000000e+00 -1.232595e-32 -0.000000e+00
    outer loop
      vertex   -4.108651e-31 3.333333e+01 5.000000e+01
      vertex   -4.108651e-31 3.333333e+01 3.333333e+01
      vertex   -2.054325e-31 1.666667e+01 3.333333e+01
    endloop
  endfacet
  facet normal -1.000000e+00 -1.232595e-32 0.000000e+00
    outer loop
      vertex   -4.108651e-31 3.333333e+01 5.000000e+01
      vertex   -2.054325e-31 1.666667e+01 3.333333e+01
      vertex   -2.054325e-31 1.666667e+01 5.000000e+01
    endloop
  endfacet
  facet normal -1.000000e+00 -1.232595e-32 -0.000000e+00
    outer loop
      vertex   -2.054325e-31 1.666667e+01 5.000000e+01
      vertex   -2.054325e-31 1.666667e+01 3.333333e+01
      vertex   0.000000e+00 0.000000e+00 3.333333e+01
    endloop
  endfacet
  facet normal -1.000000e+00 -1.232595e-32 0.000000e+00
    outer loop
      vertex   -2.054325e-31 1.666667e+01 5.000000e+01
      vertex   0.000000e+00 0.000000e+00 3.333333e+01
      vertex   0.000000e+00 0.000000e+00 5.000000e+01
    endloop
  endfacet
  facet normal -1.000000e+00 -1.232595e-32 0.000000e+00
    outer loop
      vertex   -4.108651e-31 3.333333e+01 0.000000e+00
      vertex   -2.054325e-31 1.666667e+01 0.000000e+00
      vertex   -4.108651e-31 3.333333e+01 1.666667e+01
    endloop
  endfacet
  facet normal -1.000000e+00 -1.232595e-32 0.000000e+00
    outer loop
      vertex   -4.108651e-31 3.333333e+01 1.666667e+01
      vertex   -2.054325e-31 1.666667e+01 0.000000e+00
      vertex   -2.054325e-31 1.666667e+01 1.666667e+01
    endloop
  endfacet
  facet normal -1.000000e+00 -1.232595e-32 0.000000e+00
    outer loop
      vertex   -4.108651e-31 3.333333e+01 1.666667e+01
      vertex   -2.054325e-31 1.666667e+01 1.666667e+01
      vertex   -4.108651e-31 3.333333e+01 3.333333e+01
    endloop
  endfacet
  facet normal -1.000000e+00 -1.232595e-32 0.000000e+00
    outer loop
      vertex   -4.108651e-31 3.333333e+01 3.333333e+01
      vertex   -2.054325e-31 1.666667e+01 1.666667e+01
      vertex   -2.054325e-31 1.666667e+01 3.333333e+01
    endloop
  endfacet
  facet normal -1.000000e+00 -1.232595e-32 0.000000e+00
    outer loop
      vertex   -2.054325e-31 1.666667e+01 0.000000e+00
      vertex   0.000000e+00 0.000000e+00 0.000000e+00
      vertex   -2.054325e-31 1.666667e+01 1.666667e+01
    endloop
  endfacet
  facet normal -1.000000e+00 -1.232595e-32 0.000000e+00
    outer loop
      vertex   -2.054325e-31 1.666667e+01 1.666667e+01
      vertex   0.000000e+00 0.000000e+00 0.000000e+00
      vertex   0.000000e+00 0.000000e+00 1.666667e+01
    endloop
  endfacet
  facet normal -1.000000e+00 -1.232595e-32 0.000000e+00
    outer loop
      vertex   -2.054325e-31 1.666667e+01 1.666667e+01
      vertex   0.000000e+00 0.000000e+00 1.666667e+01
      vertex   -2.054325e-31 1.666667e+01 3.333333e+01
    endloop
  endfacet
  facet normal -1.000000e+00 -1.232595e-32 0.000000e+00
    outer loop
      vertex   -2.054325e-31 1.666667e+01 3.333333e+01
      vertex   0.000000e+00 0.000000e+00 1.666667e+01
      vertex   0.000000e+00 0.000000e+00 3.333333e+01
    endloop
  endfacet
  facet normal 0.000000e+00 0.000000e+00 1.000000e+00
    outer loop
      vertex   1.666667e+01 5.000000e+01 5.000000e+01
      vertex   -6.162976e-31 5.000000e+01 5.000000e+01
      vertex   1.666667e+01 3.333333e+01 5.000000e+01
    endloop
  endfacet
  facet normal 0.000000e+00 0.000000e+00 1.000000e+00
    outer loop
      vertex   1.666667e+01 3.333333e+01 5.000000e+01
      vertex   -6.162976e-31 5.000000e+01 5.000000e+01
      vertex   -4.108651e-31 3.333333e+01 5.000000e+01
    endloop
  endfacet
  facet normal 0.000000e+00 0.000000e+00 1.000000e+00
    outer loop
      vertex   1.666667e+01 3.333333e+01 5.000000e+01
      vertex   -4.108651e-31 3.333333e+01 5.000000e+01
      vertex   1.666667e+01 1.666667e+01 5.000000e+01
    endloop
  endfacet
  facet normal 0.000000e+00 0.000000e+00 1.000000e+00
    outer loop
      vertex   1.666667e+01 1.666667e+01 5.000000e+01
      vertex   -4.108651e-31 3.333333e+01 5.000000e+01
      vertex   -2.054325e-31 1.666667e+01 5.000000e+01
    endloop
  endfacet
  facet normal 0.000000e+00 0.000000e+00 1.000000e+00
    outer loop
      vertex   1.666667e+01 1.666667e+01 5.000000e+01
      vertex   -2.054325e-31 1.666667e+01 5.000000e+01
      vertex   1.666667e+01 0.000000e+00 5.000000e+01
    endloop
  endfacet
  facet normal 0.000000e+00 0.000000e+00 1.000000e+00
    outer loop
      vertex   1.666667e+01 0.000000e+00 5.000000e+01
      vertex   -2.054325e-31 1.666667e+01 5.000000e+01
      vertex   0.000000e+00 0.000000e+00 5.000000e+01
    endloop
  endfacet
  facet normal 0.000000e+00 0.000000e+00 1.000000e+00
    outer loop
      vertex   1.666667e+01 0.000000e+00 5.000000e+01
      vertex   3.333333e+01 0.000000e+00 5.000000e+01
      vertex   1.666667e+01 1.666667e+01 5.000000e+01
    endloop
  endfacet
  facet normal -0.000000e+00 0.000000e+00 1.000000e+00
    outer loop
      vertex   1.666667e+01 1.666667e+01 5.000000e+01
      vertex   3.333333e+01 0.000000e+00 5.000000e+01
      vertex   3.333333e+01 1.666667e+01 5.000000e+01
    endloop
  endfacet
  facet normal 0.000000e+00 0.000000e+00 1.000000e+00
    outer loop
      vertex   1.666667e+01 1.666667e+01 5.000000e+01
      vertex   3.333333e+01 1.666667e+01 5.000000e+01
      vertex   1.666667e+01 3.333333e+01 5.000000e+01
    endloop
  endfacet
  facet normal -0.000000e+00 0.000000e+00 1.000000e+00
    outer loop
      vertex   1.666667e+01 3.333333e+01 5.000000e+01
      vertex   3.333333e+01 1.666667e+01 5.000000e+01
      vertex   3.333333e+01 3.333333e+01 5.000000e+01
    endloop
  endfacet
  facet normal 0.000000e+00 -0.000000e+00 1.000000e+00
    outer loop
      vertex   1.666667e+01 3.333333e+01 5.000000e+01
      vertex   3.333333e+01 3.333333e+01 5.000000e+01
      vertex   1.666667e+01 5.000000e+01 5.000000e+01
    endloop
  endfacet
  facet normal -0.000000e+00 0.000000e+00 1.000000e+00
    outer loop
      vertex   1.666667e+01 5.000000e+01 5.000000e+01
      vertex   3.333333e+01 3.333333e+01 5.000000e+01
      vertex   3.333333e+01 5.000000e+01 5.000000e+01
    endloop
  endfacet
  facet normal 0.000000e+00 0.000000e+00 1.000000e+00
    outer loop
      vertex   3.333333e+01 5.000000e+01 5.000000e+01
      vertex   3.333333e+01 3.333333e+01 5.000000e+01
      vertex   5.000000e+01 3.333333e+01 5.000000e+01
    endloop
  endfacet
  facet normal -0.000000e+00 0.000000e+00 1.000000e+00
    outer loop
      vertex   3.333333e+01 5.000000e+01 5.000000e+01
      vertex   5.000000e+01 3.333333e+01 5.000000e+01
      vertex   5.000000e+01 5.000000e+01 5.000000e+01
    endloop
  endfacet
  facet normal 0.000000e+00 0.000000e+00 1.000000e+00
    outer loop
      vertex   3.333333e+01 0.000000e+00 5.000000e+01
      vertex   5.000000e+01 0.000000e+00 5.000000e+01
      vertex   3.333333e+01 1.666667e+01 5.000000e+01
    endloop
  endfacet
  facet normal -0.000000e+00 0.000000e+00 1.000000e+00
    outer loop
      vertex   3.333333e+01 1.666667e+01 5.000000e+01
      vertex   5.000000e+01 0.000000e+00 5.000000e+01
      vertex   5.000000e+01 1.666667e+01 5.000000e+01
    endloop
  endfacet
  facet normal 0.000000e+00 0.000000e+00 1.000000e+00
    outer loop
      vertex   3.333333e+01 1.666667e+01 5.000000e+01
      vertex   5.000000e+01 1.666667e+01 5.000000e+01
      vertex   3.333333e+01 3.333333e+01 5.000000e+01
    endloop
  endfacet
  facet normal -0.000000e+00 0.000000e+00 1.000000e+00
    outer loop
      vertex   3.333333e+01 3.333333e+01 5.000000e+01
      vertex   5.000000e+01 1.666667e+01 5.000000e+01
      vertex   5.000000e+01 3.333333e+01 5.000000e+01
    endloop
  endfacet
  facet normal 0.000000e+00 0.000000e+00 -1.000000e+00
    outer loop
      vertex   1.666667e+01 0.000000e+00 0.000000e+00
      vertex   0.000000e+00 0.000000e+00 0.000000e+00
      vertex   1.666667e+01 1.666667e+01 0.000000e+00
    endloop
  endfacet
  facet normal -0.000000e+00 0.000000e+00 -1.000000e+00
    outer loop
      vertex   1.666667e+01 1.666667e+01 0.000000e+00
      vertex   0.000000e+00 0.000000e+00 0.000000e+00
      vertex   -2.054325e-31 1.666667e+01 0.000000e+00
    endloop
  endfacet
  facet normal 0.000000e+00 0.000000e+00 -1.000000e+00
    outer loop
      vertex   1.666667e+01 1.666667e+01 0.000000e+00
      vertex   -2.054325e-31 1.666667e+01 0.000000e+00
      vertex   1.666667e+01 3.333333e+01 0.000000e+00
    endloop
  endfacet
  facet normal -0.000000e+00 0.000000e+00 -1.000000e+00
    outer loop
      vertex   1.666667e+01 3.333333e+01 0.000000e+00
      vertex   -2.054325e-31 1.666667e+01 0.000000e+00
      vertex   -4.108651e-31 3.333333e+01 0.000000e+00
    endloop
  endfacet
  facet normal 0.000000e+00 0.000000e+00 -1.000000e+00
    outer loop
      vertex   1.666667e+01 3.333333e+01 0.000000e+00
      vertex   -4.108651e-31 3.333333e+01 0.000000e+00
      vertex   1.666667e+01 5.000000e+01 0.000000e+00
    endloop
  endfacet
  facet normal -0.000000e+00 0.000000e+00 -1.000000e+00
    outer loop
      vertex   1.666667e+01 5.000000e+01 0.000000e+00
      vertex   -4.108651e-31 3.333333e+01 0.000000e+00
      vertex   -6.162976e-31 5.000000e+01 0.000000e+00
    endloop
  endfacet
  facet normal 0.000000e+00 0.000000e+00 -1.000000e+00
    outer loop
      vertex   1.666667e+01 5.000000e+01 0.000000e+00
      vertex   3.333333e+01 5.000000e+01 0.000000e+00
      vertex   1.666667e+01 3.333333e+01 0.000000e+00
    endloop
  endfacet
  facet normal 0.000000e+00 0.000000e+00 -1.000000e+00
    outer loop
      vertex   1.666667e+01 3.333333e+01 0.000000e+00
      vertex   3.333333e+01 5.000000e+01 0.000000e+00
      vertex   3.333333e+01 3.333333e+01 0.000000e+00
    endloop
  endfacet
  facet normal 0.000000e+00 0.000000e+00 -1.000000e+00
    outer loop
      vertex   1.666667e+01 3.333333e+01 0.000000e+00
      vertex   3.333333e+01 3.333333e+01 0.000000e+00
      vertex   1.666667e+01 1.666667e+01 0.000000e+00
    endloop
  endfacet
  facet normal 0.000000e+00 0.000000e+00 -1.000000e+00
    outer loop
      vertex   1.666667e+01 1.666667e+01 0.000000e+00
      vertex   3.333333e+01 3.333333e+01 0.000000e+00
      vertex   3.333333e+01 1.666667e+01 0.000000e+00
    endloop
  endfacet
  facet normal 0.000000e+00 0.000000e+00 -1.000000e+00
    outer loop
      vertex   1.666667e+01 1.666667e+01 0.000000e+00
      vertex   3.333333e+01 1.666667e+01 0.000000e+00
      vertex   1.666667e+01 0.000000e+00 0.000000e+00
    endloop
  endfacet
  facet normal 0.000000e+00 0.000000e+00 -1.000000e+00
    outer loop
      vertex   1.666667e+01 0.000000e+00 0.000000e+00
      vertex   3.333333e+01 1.666667e+01 0.000000e+00
      vertex   3.333333e+01 0.000000e+00 0.000000e+00
    endloop
  endfacet
  facet normal 0.000000e+00 0.000000e+00 -1.000000e+00
    outer loop
      vertex   3.333333e+01 0.000000e+00 0.000000e+00
      vertex   3.333333e+01 1.666667e+01 0.000000e+00
      vertex   5.000000e+01 1.666667e+01 0.000000e+00
    endloop
  endfacet
  facet normal 0.000000e+00 0.000000e+00 -1.000000e+00
    outer loop
      vertex   3.333333e+01 0.000000e+00 0.000000e+00
      vertex   5.000000e+01 1.666667e+01 0.000000e+00
      vertex   5.000000e+01 0.000000e+00 0.000000e+00
    endloop
  endfacet
  facet normal 0.000000e+00 0.000000e+00 -1.000000e+00
    outer loop
      vertex   3.333333e+01 5.000000e+01 0.000000e+00
      vertex   5.000000e+01 5.000000e+01 0.000000e+00
      vertex   3.333333e+01 3.333333e+01 0.000000e+00
    endloop
  endfacet
  facet normal 0.000000e+00 0.000000e+00 -1.000000e+00
    outer loop
      vertex   3.333333e+01 3.333333e+01 0.000000e+00
      vertex   5.000000e+01 5.000000e+01 0.000000e+00
      vertex   5.000000e+01 3.333333e+01 0.000000e+00
    endloop
  endfacet
  facet normal 0.000000e+00 0.000000e+00 -1.000000e+00
    outer loop
      vertex   3.333333e+01 3.333333e+01 0.000000e+00
      vertex   5.000000e+01 3.333333e+01 0.000000e+00
      vertex   3.333333e+01 1.666667e+01 0.000000e+00
    endloop
  endfacet
  facet normal 0.000000e+00 0.000000e+00 -1.000000e+00
    outer loop
      vertex   3.333333e+01 1.666667e+01 0.000000e+00
      vertex   5.000000e+01 3.333333e+01 0.000000e+00
      vertex   5.000000e+01 1.666667e+01 0.000000e+00
    endloop
  endfacet
endsolid
