# Aspose.3D Wavefront OBJ Exporter
# Copyright 2004-2023 Aspose Pty Ltd.
# File created: 11/16/2023 07:58:55


#
# object ASCII
#

v 0 0 0
v 2.88675099999999984 0 5
v 0 20 0
v 0 20 0
v 2.88675099999999984 0 5
v 2.88675099999999984 20 5
v 20 0 5.77779E-32
v 0 0 0
v 20 20 0
v 20 20 0
v 0 0 0
v 0 20 0
v 17.11325000000000074 0 5
v 20 0 5.77779E-32
v 17.11325000000000074 20 5
v 17.11325000000000074 20 5
v 20 0 5.77779E-32
v 20 20 0
v 2.88675099999999984 0 5
v 17.11325000000000074 0 5
v 2.88675099999999984 20 5
v 2.88675099999999984 20 5
v 17.11325000000000074 0 5
v 17.11325000000000074 20 5
v 2.88675099999999984 20 5
v 17.11325000000000074 20 5
v 0 20 0
v 0 20 0
v 17.11325000000000074 20 5
v 20 20 0
v 17.11325000000000074 0 5
v 2.88675099999999984 0 5
v 20 0 5.77779E-32
v 20 0 5.77779E-32
v 2.88675099999999984 0 5
v 0 0 0
# 36 vertices

vn -0.8660254 0 0.5
vn -0.8660254 0 0.5
vn 2.888895E-33 -2.888895E-33 -1
vn 0 0 -1
vn 0.8660254 0 0.5
vn 0.8660254 0 0.5
vn 6.243128E-17 0 1
vn 6.243128E-17 0 1
vn 0 1 0
vn 0 1 0
vn 0 -1 0
vn 0 -1 0
# 12 vertex normals

g ASCII
s 1
f 1//1 2//1 3//1
f 4//2 5//2 6//2
f 7//3 8//3 9//3
f 10//4 11//4 12//4
f 13//5 14//5 15//5
f 16//6 17//6 18//6
f 19//7 20//7 21//7
f 22//8 23//8 24//8
f 25//9 26//9 27//9
f 28//10 29//10 30//10
f 31//11 32//11 33//11
f 34//12 35//12 36//12
#12 polygons

