solid ASCII
  facet normal -8.660254e-01 0.000000e+00 5.000000e-01
    outer loop
      vertex   0.000000e+00 0.000000e+00 0.000000e+00
      vertex   2.886751e+00 0.000000e+00 5.000000e+00
      vertex   0.000000e+00 2.000000e+01 0.000000e+00
    endloop
  endfacet
  facet normal -8.660254e-01 0.000000e+00 5.000000e-01
    outer loop
      vertex   0.000000e+00 2.000000e+01 0.000000e+00
      vertex   2.886751e+00 0.000000e+00 5.000000e+00
      vertex   2.886751e+00 2.000000e+01 5.000000e+00
    endloop
  endfacet
  facet normal 2.888895e-33 -2.888895e-33 -1.000000e+00
    outer loop
      vertex   2.000000e+01 0.000000e+00 5.777790e-32
      vertex   0.000000e+00 0.000000e+00 0.000000e+00
      vertex   2.000000e+01 2.000000e+01 0.000000e+00
    endloop
  endfacet
  facet normal -0.000000e+00 0.000000e+00 -1.000000e+00
    outer loop
      vertex   2.000000e+01 2.000000e+01 0.000000e+00
      vertex   0.000000e+00 0.000000e+00 0.000000e+00
      vertex   0.000000e+00 2.000000e+01 0.000000e+00
    endloop
  endfacet
  facet normal 8.660254e-01 -0.000000e+00 5.000000e-01
    outer loop
      vertex   1.711325e+01 0.000000e+00 5.000000e+00
      vertex   2.000000e+01 0.000000e+00 5.777790e-32
      vertex   1.711325e+01 2.000000e+01 5.000000e+00
    endloop
  endfacet
  facet normal 8.660254e-01 0.000000e+00 5.000000e-01
    outer loop
      vertex   1.711325e+01 2.000000e+01 5.000000e+00
      vertex   2.000000e+01 0.000000e+00 5.777790e-32
      vertex   2.000000e+01 2.000000e+01 0.000000e+00
    endloop
  endfacet
  facet normal 6.243128e-17 -0.000000e+00 1.000000e+00
    outer loop
      vertex   2.886751e+00 0.000000e+00 5.000000e+00
      vertex   1.711325e+01 0.000000e+00 5.000000e+00
      vertex   2.886751e+00 2.000000e+01 5.000000e+00
    endloop
  endfacet
  facet normal 6.243128e-17 0.000000e+00 1.000000e+00
    outer loop
      vertex   2.886751e+00 2.000000e+01 5.000000e+00
      vertex   1.711325e+01 0.000000e+00 5.000000e+00
      vertex   1.711325e+01 2.000000e+01 5.000000e+00
    endloop
  endfacet
  facet normal 0.000000e+00 1.000000e+00 0.000000e+00
    outer loop
      vertex   2.886751e+00 2.000000e+01 5.000000e+00
      vertex   1.711325e+01 2.000000e+01 5.000000e+00
      vertex   0.000000e+00 2.000000e+01 0.000000e+00
    endloop
  endfacet
  facet normal 0.000000e+00 1.000000e+00 0.000000e+00
    outer loop
      vertex   0.000000e+00 2.000000e+01 0.000000e+00
      vertex   1.711325e+01 2.000000e+01 5.000000e+00
      vertex   2.000000e+01 2.000000e+01 0.000000e+00
    endloop
  endfacet
  facet normal -0.000000e+00 -1.000000e+00 -0.000000e+00
    outer loop
      vertex   1.711325e+01 0.000000e+00 5.000000e+00
      vertex   2.886751e+00 0.000000e+00 5.000000e+00
      vertex   2.000000e+01 0.000000e+00 5.777790e-32
    endloop
  endfacet
  facet normal -0.000000e+00 -1.000000e+00 0.000000e+00
    outer loop
      vertex   2.000000e+01 0.000000e+00 5.777790e-32
      vertex   2.886751e+00 0.000000e+00 5.000000e+00
      vertex   0.000000e+00 0.000000e+00 0.000000e+00
    endloop
  endfacet
endsolid
